<?xml version="1.0" encoding="UTF-8"?>
<svg width="512" height="512" version="1.1" viewBox="0 0 135.46666 135.46667" xmlns="http://www.w3.org/2000/svg" xmlns:xlink="http://www.w3.org/1999/xlink">
<defs>
<radialGradient id="radialGradient42621" cx="63.554" cy="61.465" r="25.249" gradientTransform="matrix(3.2985 0 -9.4946e-8 1.7046 -146.2 -43.392)" gradientUnits="userSpaceOnUse">
<stop stop-color="#fb0000" offset="0"/>
<stop stop-color="#e76500" offset=".60032"/>
<stop stop-color="#ffb625" offset=".84272"/>
<stop stop-color="#ffe897" offset="1"/>
</radialGradient>
</defs>
<g display="none">
<path id="path4544" d="m42.368 50.817-26.493 37.025s18.521 10.583 47.625 10.583c29.104 0 47.625-10.626 47.625-10.626l-26.458-37.042" fill="#7e8488" fill-rule="evenodd" stroke="#303848" stroke-width="2.3"/>
<path id="path41103" d="m42.833 42.779s4.7679-3.1979 20.667-3.1979 20.896 3.3308 20.896 3.3308l0.30208 7.97s-5.2996 3.0046-21.198 3.0046c-15.899-4e-6 -21.198-3.0046-21.198-3.0046z" fill="#47525a" fill-rule="evenodd" stroke="#000" stroke-opacity=".16667" stroke-width=".324"/>
<path id="path40741" d="m42.644 42.879s5.0172-3.3378 20.736-3.3378 20.994 3.3518 20.994 3.3518-5.1549 2.9114-20.874 2.9114-20.857-2.9255-20.857-2.9255z" fill="#8b9fa8" fill-rule="evenodd" opacity=".751"/>
<path id="path4542" d="m42.302 50.83s-0.12473-6.9913 0.45916-7.9308 4.8404-3.3187 20.739-3.3187 20.061 2.4539 20.727 3.1496 0.47124 8.0829 0.47124 8.0829" fill="none" stroke="#303848" stroke-linecap="round" stroke-linejoin="round" stroke-width="2.3"/>
</g>
<g display="none">
<path id="path40356" d="m63.507 58.518s6.2804-0.0091 8.7107 1.2511c1.2213 0.63325 8.597 14.119 8.1581 15.029-3.0912 6.4066-16.869 5.781-16.869 5.781" display="inline" fill="#1e1616" fill-rule="evenodd"/>
<use id="use40358" transform="matrix(-1 0 0 1 127.17 6.771e-8)" width="100%" height="100%" display="inline" xlink:href="#path40356"/>
<path id="path41183" d="m48.512 76.07s2.6205 3.0338 14.384 3.2585 15.939-3.6162 15.939-3.6162c1.8155-1.3262-0.0073-0.90036-1.0057-0.75173 0 0-2.4272 2.3591-14.761 2.2442s-13.449-2.5577-13.449-2.5577c-2.7817-0.14849-2.6791-0.30653-1.1076 1.423z" fill="#ff9989" fill-rule="evenodd" opacity=".249"/>
<path id="path41240" d="m49.024 70.993s5.7883-10.14 6.9768-10.452c1.1885-0.31277 5.3171-0.93831 7.569-0.87575 2.2519 0.06255 7.4589 0.48529 8.0381 0.8132 0.57927 0.32791 0.62554 0.8132 0.62554 0.8132-5.2483 0.30493-9.4645 0.42435-13.507 2.4592-4.0427 2.0348-6.446 3.6268-8.9287 6.7617-0.36485 0.46069-0.77366 0.4808-0.77366 0.4808z" display="inline" fill="#fff" fill-rule="evenodd" opacity=".394"/>
</g>
<g display="none">
<ellipse cx="63.5" cy="66.675" rx="13.764" ry="10.323" color="#000000" color-rendering="auto" display="inline" fill-rule="evenodd" image-rendering="auto" shape-rendering="auto" solid-color="#000000" style="isolation:auto;mix-blend-mode:normal"/>
</g>
<g display="none">
<use transform="matrix(-1 0 0 1 126.93 0)" width="100%" height="100%" xlink:href="#path40336"/>
<path id="path40336" d="m63.363 89.074c7.849 0.08737 13.596-9.7641 12.681-18.235 4.1433 5.1315 14.116 14.925 20.745 10.613 4.2326-2.7534 4.2706-12.471-2.0939-21.729 8.1263 9.812 19.945 15.589 16.977 24.053-3.9149 11.166-32.297 18.883-48.172 18.883" fill="#352617" fill-rule="evenodd"/>
<path id="path4554" d="m63.363 90.616c13.454-0.54682 14.138-15.231 14.138-15.231s11.073 11.396 19.429 7.9461c5.3768-2.2195 5.7778-12.552-0.58666-21.81 11.544 11.794 21.85 16.422 16.559 27.005-5.2917 10.583-33.527 15.191-49.402 15.191" fill="#ec6f00" fill-rule="evenodd"/>
<use transform="matrix(-1 0 0 1 127 -3.3333e-6)" width="100%" height="100%" xlink:href="#path4554"/>
<path id="path41242" d="m63.363 98.929c13.454-0.54682 17.038-13.781 17.038-13.781s10.686 10.052 23.857 4.85c8.2158-3.245 5.8589-12.219-0.50559-21.477 9.3206 8.2418 12.904 12.375 9.1495 20.005-5.2243 10.617-33.527 15.191-49.402 15.191" fill="#ffaf40" fill-rule="evenodd"/>
<use transform="matrix(-1 0 0 1 126.99 0)" width="100%" height="100%" xlink:href="#path41242"/>
</g>
<g display="none">
<use transform="matrix(-1 0 0 1 126.93 3.1366e-7)" width="100%" height="100%" display="inline" xlink:href="#path40336-0"/>
<path id="path40336-0" d="m63.363 89.074c7.849 0.08737 13.596-9.7641 12.681-18.235 4.1433 5.1315 14.116 14.925 20.745 10.613 4.2326-2.7534 4.2706-12.471-2.0939-21.729 8.1263 9.812 19.945 15.589 16.977 24.053-3.9149 11.166-32.297 18.883-48.172 18.883" display="inline" fill="#533126" fill-rule="evenodd"/>
<path id="path4554-3" d="m63.291 90.616c13.659-0.4786 14.138-15.231 14.138-15.231s11.073 11.396 19.429 7.9461c5.3768-2.2195 5.7778-12.552-0.58665-21.81 11.544 11.794 21.85 16.422 16.559 27.005-5.2917 10.583-33.527 15.191-49.402 15.191" display="inline" fill="url(#radialGradient42621)" fill-rule="evenodd"/>
<use transform="matrix(-1 0 0 1 126.93 -3.3333e-6)" width="100%" height="100%" xlink:href="#path4554-3"/>
</g>
<g display="none">
<path id="path42625" d="m63.363 89.074c7.849 0.08737 13.596-9.7641 12.681-18.235 4.1433 5.1315 14.116 14.925 20.745 10.613 4.2326-2.7534 3.7248-13.105-2.6396-22.363 9.8504 10.894 20.524 15.744 20.524 24.621 0 15.921-34.577 20.627-51.611 20.603" display="inline" fill="#533126" fill-rule="evenodd"/>
<use id="use42633" transform="matrix(-1 0 0 1 126.99 0)" width="100%" height="100%" xlink:href="#path42625"/>
<use id="use42629" transform="matrix(-1 0 0 1 126.93 -3.3333e-6)" width="100%" height="100%" xlink:href="#path4554-3"/>
<path id="path42627" d="m63.291 90.616c13.659-0.4786 14.138-15.231 14.138-15.231s11.073 11.396 19.429 7.9461c5.3768-2.2195 5.7778-12.552-0.58665-21.81 11.544 11.794 21.85 16.422 16.559 27.005-5.2917 10.583-33.527 15.191-49.402 15.191" display="inline" fill="url(#radialGradient42621)" fill-rule="evenodd"/>
<text x="148.32249" y="99.256187" display="inline" fill="#000000" font-family="Montserrat" font-size="21.802px" letter-spacing="0px" stroke-width=".9084px" word-spacing="0px" style="line-height:125%" xml:space="preserve"><tspan x="148.32249" y="99.256187" dx="0" font-family="Montserrat" font-size="87.207px" letter-spacing="-4.4307px" stroke-width=".9084px" word-spacing="0px">C<tspan font-family="'Montserrat Alternates'" stroke-width=".9084px">a</tspan>psul.</tspan></text>
</g>
<g>
<g transform="matrix(1.2512 -.72236 .72236 1.2512 -255.68 126.71)">
<use transform="translate(150.51 -6.4388)" width="100%" height="100%" xlink:href="#path4544"/>
<use transform="translate(150.51 -6.4388)" width="100%" height="100%" xlink:href="#path41103"/>
<use transform="translate(150.51 -6.4388)" width="100%" height="100%" xlink:href="#path40741"/>
<use transform="translate(150.51 -6.4388)" width="100%" height="100%" xlink:href="#path4542"/>
<use transform="translate(150.51 -6.4388)" width="100%" height="100%" xlink:href="#path40356"/>
<use transform="translate(150.51 -6.4388)" width="100%" height="100%" xlink:href="#use40358"/>
<use transform="translate(150.51 -6.4388)" width="100%" height="100%" xlink:href="#path41183"/>
<use transform="translate(150.51 -6.4388)" width="100%" height="100%" xlink:href="#path41240"/>
<use transform="translate(150.51 -6.4388)" width="100%" height="100%" xlink:href="#path42625"/>
<use transform="translate(150.51 -6.4388)" width="100%" height="100%" xlink:href="#use42633"/>
<use transform="translate(150.51 -6.4388)" width="100%" height="100%" xlink:href="#use42629"/>
<use transform="translate(150.51 -6.4388)" width="100%" height="100%" xlink:href="#path42627"/>
</g>
<g stroke-width=".9084px" aria-label="Capsul.">
<path d="m184.77 99.779c8.9823 0 17.005-3.0522 22.412-8.9823l-4.0987-4.0987c-4.9708 5.1452-11.075 7.3254-18.052 7.3254-14.738 0-25.813-10.814-25.813-25.29s11.075-25.29 25.813-25.29c6.9765 0 13.081 2.1802 18.052 7.2382l4.0987-4.0987c-5.4068-5.9301-13.43-8.8951-22.325-8.8951-18.401 0-32.005 13.168-32.005 31.046s13.604 31.046 31.918 31.046z"/>
<path d="m250.89 53.385v8.7207c-3.8371-5.9301-10.116-9.0695-17.441-9.0695-13.081 0-22.848 9.4183-22.848 23.284 0 13.866 9.7672 23.371 22.848 23.371 7.587 0 13.953-3.3139 17.703-9.5055v9.0695h5.93v-45.871zm-16.918 40.813c-9.7672 0-17.093-7.1509-17.093-17.877 0-10.726 7.3254-17.877 17.093-17.877 9.6799 0 17.005 7.1509 17.005 17.877 0 10.726-7.3254 17.877-17.005 17.877z"/>
<path d="m293.56 53.037c-7.587 0-13.953 3.3139-17.703 9.4183v-9.0695h-5.93v62.789h6.1917v-25.552c3.8371 5.9301 10.116 9.0695 17.441 9.0695 13.081 0 22.848-9.4183 22.848-23.371 0-13.866-9.7672-23.284-22.848-23.284zm-0.43603 41.162c-9.7672 0-17.093-7.1509-17.093-17.877 0-10.639 7.3254-17.877 17.093-17.877 9.6799 0 17.093 7.2382 17.093 17.877 0 10.726-7.4126 17.877-17.093 17.877z"/>
<path d="m336.91 99.692c11.947 0 18.924-5.1452 18.924-13.081 0-17.616-29.737-8.2846-29.737-20.668 0-4.3603 3.6627-7.587 11.947-7.587 4.7092 0 9.5055 1.1337 13.517 3.9243l2.7034-4.9708c-3.8371-2.6162-10.29-4.2731-16.22-4.2731-11.686 0-18.139 5.5812-18.139 13.081 0 18.139 29.737 8.7207 29.737 20.668 0 4.5347-3.5755 7.4998-12.296 7.4998-6.4533 0-12.645-2.2674-16.308-5.1452l-2.7906 4.8836c3.7499 3.2266 11.075 5.6684 18.662 5.6684z"/>
<path d="m397.98 53.385v24.069c0 10.465-6.0173 16.656-15.61 16.656-8.7207 0-13.779-4.9708-13.779-14.738v-25.988h-6.1917v26.598c0 13.168 7.6742 19.709 19.36 19.709 7.3254 0 13.255-3.2266 16.482-8.8079v8.3718h5.9301v-45.871z"/>
<path d="m417.09 99.256h6.1917v-64.707h-6.1917z"/>
<path d="m436.73 99.692c2.529 0 4.7092-2.093 4.7092-4.7964 0-2.7034-2.1802-4.7092-4.7092-4.7092s-4.622 2.0058-4.622 4.7092c0 2.7034 2.093 4.7964 4.622 4.7964z"/>
</g>
</g>
</svg>
